<?xml version="1.0" encoding="utf-8" standalone="no"?>
<!DOCTYPE svg PUBLIC "-//W3C//DTD SVG 1.1//EN"
  "http://www.w3.org/Graphics/SVG/1.1/DTD/svg11.dtd">
<!-- Created with matplotlib (https://matplotlib.org/) -->
<svg height="288pt" version="1.1" viewBox="0 0 432 288" width="432pt" xmlns="http://www.w3.org/2000/svg" xmlns:xlink="http://www.w3.org/1999/xlink">
 <defs>
  <style type="text/css">
*{stroke-linecap:butt;stroke-linejoin:round;}
  </style>
 </defs>
 <g id="figure_1">
  <g id="patch_1">
   <path d="M 0 288 
L 432 288 
L 432 0 
L 0 0 
z
" style="fill:#ffffff;"/>
  </g>
  <g id="axes_1">
   <g id="patch_2">
    <path d="M 38.437028 255.420538 
L 321.585727 255.420538 
L 321.585727 2.834646 
L 38.437028 2.834646 
z
" style="fill:#ffffff;"/>
   </g>
   <g id="matplotlib.axis_1">
    <g id="xtick_1">
     <g id="line2d_1">
      <path clip-path="url(#p5c8f702449)" d="M 38.437028 255.420538 
L 38.437028 2.834646 
" style="fill:none;stroke:#000000;stroke-linecap:square;stroke-opacity:0.1;stroke-width:0.5;"/>
     </g>
     <g id="line2d_2">
      <defs>
       <path d="M 0 0 
L 0 3.5 
" id="m146c313dbb" style="stroke:#000000;stroke-width:0.5;"/>
      </defs>
      <g>
       <use style="stroke:#000000;stroke-width:0.5;" x="38.437028" xlink:href="#m146c313dbb" y="255.420538"/>
      </g>
     </g>
     <g id="text_1">
      <!-- 0.00 -->
      <defs>
       <path d="M 42 31.84375 
C 42 37.96875 41.90625 48.421875 37.703125 56.453125 
C 34 63.484375 28.09375 66 22.90625 66 
C 18.09375 66 12 63.78125 8.203125 56.5625 
C 4.203125 49.015625 3.796875 39.671875 3.796875 31.84375 
C 3.796875 26.109375 3.90625 17.375 7 9.734375 
C 11.296875 -0.609375 19 -2 22.90625 -2 
C 27.5 -2 34.5 -0.109375 38.59375 9.4375 
C 41.59375 16.375 42 24.5 42 31.84375 
z
M 22.90625 -0.40625 
C 16.5 -0.40625 12.703125 5.125 11.296875 12.75 
C 10.203125 18.6875 10.203125 27.328125 10.203125 32.953125 
C 10.203125 40.6875 10.203125 47.109375 11.5 53.234375 
C 13.40625 61.78125 19 64.390625 22.90625 64.390625 
C 27 64.390625 32.296875 61.671875 34.203125 53.4375 
C 35.5 47.71875 35.59375 40.984375 35.59375 32.953125 
C 35.59375 26.421875 35.59375 18.375 34.40625 12.453125 
C 32.296875 1.5 26.40625 -0.40625 22.90625 -0.40625 
z
" id="CMR17-48"/>
       <path d="M 16.59375 4.09375 
C 16.59375 6.59375 14.59375 8.1875 12.5 8.1875 
C 10.5 8.1875 8.40625 6.59375 8.40625 4.09375 
C 8.40625 1.59375 10.40625 0 12.5 0 
C 14.5 0 16.59375 1.59375 16.59375 4.09375 
z
" id="CMR17-46"/>
      </defs>
      <g transform="translate(30.909592 267.95534)scale(0.08 -0.08)">
       <use transform="scale(0.996264)" xlink:href="#CMR17-48"/>
       <use transform="translate(45.690477 0)scale(0.996264)" xlink:href="#CMR17-46"/>
       <use transform="translate(70.561536 0)scale(0.996264)" xlink:href="#CMR17-48"/>
       <use transform="translate(116.252013 0)scale(0.996264)" xlink:href="#CMR17-48"/>
      </g>
     </g>
    </g>
    <g id="xtick_2">
     <g id="line2d_3">
      <path clip-path="url(#p5c8f702449)" d="M 109.224203 255.420538 
L 109.224203 2.834646 
" style="fill:none;stroke:#000000;stroke-linecap:square;stroke-opacity:0.1;stroke-width:0.5;"/>
     </g>
     <g id="line2d_4">
      <g>
       <use style="stroke:#000000;stroke-width:0.5;" x="109.224203" xlink:href="#m146c313dbb" y="255.420538"/>
      </g>
     </g>
     <g id="text_2">
      <!-- 0.25 -->
      <defs>
       <path d="M 41.703125 15.46875 
L 39.90625 15.46875 
C 38.90625 8.390625 38.09375 7.1875 37.703125 6.59375 
C 37.203125 5.796875 30 5.796875 28.59375 5.796875 
L 9.40625 5.796875 
C 13 9.6875 20 16.765625 28.5 24.9375 
C 34.59375 30.71875 41.703125 37.5 41.703125 47.390625 
C 41.703125 59.1875 32.296875 66 21.796875 66 
C 10.796875 66 4.09375 56.296875 4.09375 47.296875 
C 4.09375 43.390625 7 42.890625 8.203125 42.890625 
C 9.203125 42.890625 12.203125 43.484375 12.203125 46.984375 
C 12.203125 50.09375 9.59375 51 8.203125 51 
C 7.59375 51 7 50.890625 6.59375 50.6875 
C 8.5 59.1875 14.296875 63.390625 20.40625 63.390625 
C 29.09375 63.390625 34.796875 56.5 34.796875 47.390625 
C 34.796875 38.703125 29.703125 31.21875 24 24.734375 
L 4.09375 2.296875 
L 4.09375 0 
L 39.296875 0 
z
" id="CMR17-50"/>
       <path d="M 11.40625 58.59375 
C 12.40625 58.1875 16.5 56.890625 20.703125 56.890625 
C 30 56.890625 35.09375 61.890625 38 64.6875 
C 38 65.484375 38 66 37.40625 66 
C 37.296875 66 37.09375 66 36.296875 65.59375 
C 32.796875 64.09375 28.703125 63 23.703125 63 
C 20.703125 63 16.203125 63.359375 11.296875 65.484375 
C 10.203125 66 10 66 9.90625 66 
C 9.40625 66 9.296875 65.890625 9.296875 63.90625 
L 9.296875 34.859375 
C 9.296875 33.015625 9.296875 32.5 10.296875 32.5 
C 10.796875 32.5 11 32.703125 11.5 33.421875 
C 14.703125 38.046875 19.09375 40 24.09375 40 
C 27.59375 40 35.09375 37.734375 35.09375 20.203125 
C 35.09375 16.984375 35.09375 11.1875 32.09375 6.59375 
C 29.59375 2.484375 25.703125 0.390625 21.40625 0.390625 
C 14.796875 0.390625 8.09375 4.984375 6.296875 12.6875 
C 6.703125 12.59375 7.5 12.390625 7.90625 12.390625 
C 9.203125 12.390625 11.703125 13.09375 11.703125 16.1875 
C 11.703125 18.890625 9.796875 20 7.90625 20 
C 5.59375 20 4.09375 18.59375 4.09375 15.796875 
C 4.09375 7.09375 11 -2 21.59375 -2 
C 31.90625 -2 41.703125 6.890625 41.703125 19.796875 
C 41.703125 32.09375 33.90625 41.59375 24.203125 41.59375 
C 19.09375 41.59375 14.796875 39.6875 11.40625 36 
z
" id="CMR17-53"/>
      </defs>
      <g transform="translate(101.696766 267.95534)scale(0.08 -0.08)">
       <use transform="scale(0.996264)" xlink:href="#CMR17-48"/>
       <use transform="translate(45.690477 0)scale(0.996264)" xlink:href="#CMR17-46"/>
       <use transform="translate(70.561536 0)scale(0.996264)" xlink:href="#CMR17-50"/>
       <use transform="translate(116.252013 0)scale(0.996264)" xlink:href="#CMR17-53"/>
      </g>
     </g>
    </g>
    <g id="xtick_3">
     <g id="line2d_5">
      <path clip-path="url(#p5c8f702449)" d="M 180.011377 255.420538 
L 180.011377 2.834646 
" style="fill:none;stroke:#000000;stroke-linecap:square;stroke-opacity:0.1;stroke-width:0.5;"/>
     </g>
     <g id="line2d_6">
      <g>
       <use style="stroke:#000000;stroke-width:0.5;" x="180.011377" xlink:href="#m146c313dbb" y="255.420538"/>
      </g>
     </g>
     <g id="text_3">
      <!-- 0.50 -->
      <g transform="translate(172.483941 267.95534)scale(0.08 -0.08)">
       <use transform="scale(0.996264)" xlink:href="#CMR17-48"/>
       <use transform="translate(45.690477 0)scale(0.996264)" xlink:href="#CMR17-46"/>
       <use transform="translate(70.561536 0)scale(0.996264)" xlink:href="#CMR17-53"/>
       <use transform="translate(116.252013 0)scale(0.996264)" xlink:href="#CMR17-48"/>
      </g>
     </g>
    </g>
    <g id="xtick_4">
     <g id="line2d_7">
      <path clip-path="url(#p5c8f702449)" d="M 250.798552 255.420538 
L 250.798552 2.834646 
" style="fill:none;stroke:#000000;stroke-linecap:square;stroke-opacity:0.1;stroke-width:0.5;"/>
     </g>
     <g id="line2d_8">
      <g>
       <use style="stroke:#000000;stroke-width:0.5;" x="250.798552" xlink:href="#m146c313dbb" y="255.420538"/>
      </g>
     </g>
     <g id="text_4">
      <!-- 0.75 -->
      <defs>
       <path d="M 45.09375 61.796875 
L 45.09375 64 
L 21.59375 64 
C 9.90625 64 9.703125 65.09375 9.296875 67 
L 7.5 67 
L 4.59375 48.5 
L 6.40625 48.5 
C 6.703125 50.40625 7.40625 55.5 8.59375 57.390625 
C 9.203125 58.1875 16.59375 58.1875 18.296875 58.1875 
L 40.296875 58.1875 
L 29.203125 41.71875 
C 21.796875 30.640625 16.703125 15.671875 16.703125 2.59375 
C 16.703125 1.390625 16.703125 -2 20.296875 -2 
C 23.90625 -2 23.90625 1.390625 23.90625 2.6875 
L 23.90625 7.28125 
C 23.90625 23.65625 26.703125 34.4375 31.296875 41.3125 
z
" id="CMR17-55"/>
      </defs>
      <g transform="translate(243.271116 267.95534)scale(0.08 -0.08)">
       <use transform="scale(0.996264)" xlink:href="#CMR17-48"/>
       <use transform="translate(45.690477 0)scale(0.996264)" xlink:href="#CMR17-46"/>
       <use transform="translate(70.561536 0)scale(0.996264)" xlink:href="#CMR17-55"/>
       <use transform="translate(116.252013 0)scale(0.996264)" xlink:href="#CMR17-53"/>
      </g>
     </g>
    </g>
    <g id="xtick_5">
     <g id="line2d_9">
      <path clip-path="url(#p5c8f702449)" d="M 321.585727 255.420538 
L 321.585727 2.834646 
" style="fill:none;stroke:#000000;stroke-linecap:square;stroke-opacity:0.1;stroke-width:0.5;"/>
     </g>
     <g id="line2d_10">
      <g>
       <use style="stroke:#000000;stroke-width:0.5;" x="321.585727" xlink:href="#m146c313dbb" y="255.420538"/>
      </g>
     </g>
     <g id="text_5">
      <!-- 1.00 -->
      <defs>
       <path d="M 26.59375 63.796875 
C 26.59375 65.890625 26.5 66 25.09375 66 
C 21.203125 61.359375 15.296875 59.890625 9.703125 59.6875 
C 9.40625 59.6875 8.90625 59.6875 8.796875 59.5 
C 8.703125 59.296875 8.703125 59.09375 8.703125 57 
C 11.796875 57 17 57.59375 21 59.984375 
L 21 7.296875 
C 21 3.796875 20.796875 2.59375 12.203125 2.59375 
L 9.203125 2.59375 
L 9.203125 0 
C 14 0.09375 19 0.1875 23.796875 0.1875 
C 28.59375 0.1875 33.59375 0.09375 38.40625 0 
L 38.40625 2.59375 
L 35.40625 2.59375 
C 26.796875 2.59375 26.59375 3.6875 26.59375 7.296875 
z
" id="CMR17-49"/>
      </defs>
      <g transform="translate(314.058291 267.95534)scale(0.08 -0.08)">
       <use transform="scale(0.996264)" xlink:href="#CMR17-49"/>
       <use transform="translate(45.690477 0)scale(0.996264)" xlink:href="#CMR17-46"/>
       <use transform="translate(70.561536 0)scale(0.996264)" xlink:href="#CMR17-48"/>
       <use transform="translate(116.252013 0)scale(0.996264)" xlink:href="#CMR17-48"/>
      </g>
     </g>
    </g>
    <g id="text_6">
     <!-- $x$ -->
     <defs>
      <path d="M 47.40625 41 
C 44.203125 40.390625 43 37.984375 43 36.09375 
C 43 33.6875 44.90625 32.890625 46.296875 32.890625 
C 49.296875 32.890625 51.40625 35.484375 51.40625 38.1875 
C 51.40625 42.09375 46.59375 44 42.40625 44 
C 36.296875 44 32.90625 38.296875 32 36.390625 
C 29.703125 43.59375 23.5 44 21.703125 44 
C 11.5 44 6.09375 31.140625 6.09375 28.890625 
C 6.09375 28.484375 6.5 27.96875 7.203125 27.96875 
C 8 27.96875 8.203125 28.578125 8.40625 28.984375 
C 11.796875 40.1875 18.5 41.984375 21.40625 41.984375 
C 25.90625 41.984375 26.796875 38.09375 26.796875 35.6875 
C 26.796875 33.484375 26.203125 31.140625 25 26.21875 
L 21.59375 12.15625 
C 20.09375 6.09375 17.203125 1 11.90625 1 
C 11.40625 1 8.90625 1 6.796875 1.96875 
C 10.40625 2.59375 11.203125 5.59375 11.203125 6.796875 
C 11.203125 8.796875 9.703125 10 7.796875 10 
C 5.40625 10 2.796875 7.890625 2.796875 4.6875 
C 2.796875 0.890625 7.5 -1 11.796875 -1 
C 16.59375 -1 20 2.390625 22.09375 6.484375 
C 23.703125 1 28.703125 -1 32.40625 -1 
C 42.59375 -1 48 11.734375 48 14 
C 48 14.515625 47.59375 14.921875 47 14.921875 
C 46.09375 14.921875 46 14.40625 45.703125 13.59375 
C 43 4.6875 37.203125 1 32.703125 1 
C 29.203125 1 27.296875 3.1875 27.296875 7.296875 
C 27.296875 9.484375 27.703125 11.125 29.296875 17.90625 
L 32.796875 31.859375 
C 34.296875 37.890625 37.703125 41.984375 42.296875 41.984375 
C 42.5 41.984375 45.296875 41.984375 47.40625 41 
z
" id="CMMI12-120"/>
     </defs>
     <g transform="translate(176.879719 281.115432)scale(0.11 -0.11)">
      <use transform="scale(0.996264)" xlink:href="#CMMI12-120"/>
     </g>
    </g>
   </g>
   <g id="matplotlib.axis_2">
    <g id="ytick_1">
     <g id="line2d_11">
      <path clip-path="url(#p5c8f702449)" d="M 38.437028 220.841177 
L 321.585727 220.841177 
" style="fill:none;stroke:#000000;stroke-linecap:square;stroke-opacity:0.1;stroke-width:0.5;"/>
     </g>
     <g id="line2d_12">
      <defs>
       <path d="M 0 0 
L -3.5 0 
" id="m68c1a5c530" style="stroke:#000000;stroke-width:0.5;"/>
      </defs>
      <g>
       <use style="stroke:#000000;stroke-width:0.5;" x="38.437028" xlink:href="#m68c1a5c530" y="220.841177"/>
      </g>
     </g>
     <g id="text_7">
      <!-- -5.0 -->
      <defs>
       <path d="M 25.5 19.59375 
L 25.5 24 
L 0.40625 24 
L 0.40625 19.59375 
z
" id="CMR17-45"/>
      </defs>
      <g transform="translate(17.79355 223.608578)scale(0.08 -0.08)">
       <use transform="scale(0.996264)" xlink:href="#CMR17-45"/>
       <use transform="translate(30.075966 0)scale(0.996264)" xlink:href="#CMR17-53"/>
       <use transform="translate(75.766443 0)scale(0.996264)" xlink:href="#CMR17-46"/>
       <use transform="translate(100.637502 0)scale(0.996264)" xlink:href="#CMR17-48"/>
      </g>
     </g>
    </g>
    <g id="ytick_2">
     <g id="line2d_13">
      <path clip-path="url(#p5c8f702449)" d="M 38.437028 174.984384 
L 321.585727 174.984384 
" style="fill:none;stroke:#000000;stroke-linecap:square;stroke-opacity:0.1;stroke-width:0.5;"/>
     </g>
     <g id="line2d_14">
      <g>
       <use style="stroke:#000000;stroke-width:0.5;" x="38.437028" xlink:href="#m68c1a5c530" y="174.984384"/>
      </g>
     </g>
     <g id="text_8">
      <!-- -2.5 -->
      <g transform="translate(17.79355 177.751785)scale(0.08 -0.08)">
       <use transform="scale(0.996264)" xlink:href="#CMR17-45"/>
       <use transform="translate(30.075966 0)scale(0.996264)" xlink:href="#CMR17-50"/>
       <use transform="translate(75.766443 0)scale(0.996264)" xlink:href="#CMR17-46"/>
       <use transform="translate(100.637502 0)scale(0.996264)" xlink:href="#CMR17-53"/>
      </g>
     </g>
    </g>
    <g id="ytick_3">
     <g id="line2d_15">
      <path clip-path="url(#p5c8f702449)" d="M 38.437028 129.127592 
L 321.585727 129.127592 
" style="fill:none;stroke:#000000;stroke-linecap:square;stroke-opacity:0.1;stroke-width:0.5;"/>
     </g>
     <g id="line2d_16">
      <g>
       <use style="stroke:#000000;stroke-width:0.5;" x="38.437028" xlink:href="#m68c1a5c530" y="129.127592"/>
      </g>
     </g>
     <g id="text_9">
      <!-- 0.0 -->
      <g transform="translate(20.616338 131.894993)scale(0.08 -0.08)">
       <use transform="scale(0.996264)" xlink:href="#CMR17-48"/>
       <use transform="translate(45.690477 0)scale(0.996264)" xlink:href="#CMR17-46"/>
       <use transform="translate(70.561536 0)scale(0.996264)" xlink:href="#CMR17-48"/>
      </g>
     </g>
    </g>
    <g id="ytick_4">
     <g id="line2d_17">
      <path clip-path="url(#p5c8f702449)" d="M 38.437028 83.270799 
L 321.585727 83.270799 
" style="fill:none;stroke:#000000;stroke-linecap:square;stroke-opacity:0.1;stroke-width:0.5;"/>
     </g>
     <g id="line2d_18">
      <g>
       <use style="stroke:#000000;stroke-width:0.5;" x="38.437028" xlink:href="#m68c1a5c530" y="83.270799"/>
      </g>
     </g>
     <g id="text_10">
      <!-- 2.5 -->
      <g transform="translate(20.616338 86.0382)scale(0.08 -0.08)">
       <use transform="scale(0.996264)" xlink:href="#CMR17-50"/>
       <use transform="translate(45.690477 0)scale(0.996264)" xlink:href="#CMR17-46"/>
       <use transform="translate(70.561536 0)scale(0.996264)" xlink:href="#CMR17-53"/>
      </g>
     </g>
    </g>
    <g id="ytick_5">
     <g id="line2d_19">
      <path clip-path="url(#p5c8f702449)" d="M 38.437028 37.414007 
L 321.585727 37.414007 
" style="fill:none;stroke:#000000;stroke-linecap:square;stroke-opacity:0.1;stroke-width:0.5;"/>
     </g>
     <g id="line2d_20">
      <g>
       <use style="stroke:#000000;stroke-width:0.5;" x="38.437028" xlink:href="#m68c1a5c530" y="37.414007"/>
      </g>
     </g>
     <g id="text_11">
      <!-- 5.0 -->
      <g transform="translate(20.616338 40.181408)scale(0.08 -0.08)">
       <use transform="scale(0.996264)" xlink:href="#CMR17-53"/>
       <use transform="translate(45.690477 0)scale(0.996264)" xlink:href="#CMR17-46"/>
       <use transform="translate(70.561536 0)scale(0.996264)" xlink:href="#CMR17-48"/>
      </g>
     </g>
    </g>
    <g id="text_12">
     <!-- $y(x)$ -->
     <defs>
      <path d="M 26.296875 -10.515625 
C 23.59375 -14.390625 19.703125 -18 14.796875 -18 
C 13.59375 -18 8.796875 -17.796875 7.296875 -12.90625 
C 7.59375 -13.015625 8.09375 -13.015625 8.296875 -13.015625 
C 11.296875 -13.015625 13.296875 -10.40625 13.296875 -8.109375 
C 13.296875 -5.8125 11.40625 -5 9.90625 -5 
C 8.296875 -5 4.796875 -6.203125 4.796875 -11.109375 
C 4.796875 -16.40625 9.09375 -20 14.796875 -20 
C 24.796875 -20 34.90625 -10.515625 37.703125 -0.109375 
L 47.5 38.796875 
C 47.59375 39.296875 47.796875 39.890625 47.796875 40.484375 
C 47.796875 41.984375 46.59375 43 45.09375 43 
C 44.203125 43 42.09375 42.59375 41.296875 39.59375 
L 33.90625 10.265625 
C 33.40625 8.46875 33.40625 8.28125 32.59375 7.171875 
C 30.59375 4.390625 27.296875 1 22.5 1 
C 16.90625 1 16.40625 6.484375 16.40625 9.171875 
C 16.40625 14.859375 19.09375 22.546875 21.796875 29.71875 
C 22.90625 32.609375 23.5 34.015625 23.5 36.015625 
C 23.5 40.203125 20.5 44 15.59375 44 
C 6.40625 44 2.703125 29.53125 2.703125 28.71875 
C 2.703125 28.328125 3.09375 27.828125 3.796875 27.828125 
C 4.703125 27.828125 4.796875 28.234375 5.203125 29.625 
C 7.59375 38 11.40625 41.984375 15.296875 41.984375 
C 16.203125 41.984375 17.90625 41.984375 17.90625 38.703125 
C 17.90625 36.109375 16.796875 33.21875 15.296875 29.421875 
C 10.40625 16.359375 10.40625 13.0625 10.40625 10.671875 
C 10.40625 1.1875 17.203125 -1 22.203125 -1 
C 25.09375 -1 28.703125 -0.109375 32.203125 3.59375 
L 32.296875 3.484375 
C 30.796875 -2.203125 29.796875 -5.609375 26.296875 -10.515625 
z
" id="CMMI12-121"/>
      <path d="M 30.59375 -24.40625 
C 30.59375 -24.3125 30.59375 -24.109375 30.296875 -23.8125 
C 25.703125 -19.109375 13.40625 -6.296875 13.40625 24.9375 
C 13.40625 56.171875 25.5 68.875 30.40625 73.890625 
C 30.40625 73.984375 30.59375 74.1875 30.59375 74.484375 
C 30.59375 74.796875 30.296875 75 29.90625 75 
C 28.796875 75 20.296875 67.578125 15.40625 56.5625 
C 10.40625 45.453125 9 34.65625 9 25.046875 
C 9 17.828125 9.703125 5.625 15.703125 -7.296875 
C 20.5 -17.703125 28.703125 -25 29.90625 -25 
C 30.40625 -25 30.59375 -24.8125 30.59375 -24.40625 
z
" id="CMR17-40"/>
      <path d="M 26.296875 24.9375 
C 26.296875 32.140625 25.59375 44.359375 19.59375 57.265625 
C 14.796875 67.6875 6.59375 75 5.40625 75 
C 5.09375 75 4.703125 74.890625 4.703125 74.390625 
C 4.703125 74.1875 4.796875 74.09375 4.90625 73.890625 
C 9.703125 68.875 21.90625 56.171875 21.90625 25.046875 
C 21.90625 -6.1875 9.796875 -18.90625 4.90625 -23.90625 
C 4.796875 -24.109375 4.703125 -24.203125 4.703125 -24.40625 
C 4.703125 -24.90625 5.09375 -25 5.40625 -25 
C 6.5 -25 15 -17.609375 19.90625 -6.59375 
C 24.90625 4.515625 26.296875 15.328125 26.296875 24.9375 
z
" id="CMR17-41"/>
     </defs>
     <g transform="translate(11.053824 139.404126)rotate(-90)scale(0.11 -0.11)">
      <use transform="scale(0.996264)" xlink:href="#CMMI12-121"/>
      <use transform="translate(51.138781 0)scale(0.996264)" xlink:href="#CMR17-40"/>
      <use transform="translate(86.419549 0)scale(0.996264)" xlink:href="#CMMI12-120"/>
      <use transform="translate(141.853608 0)scale(0.996264)" xlink:href="#CMR17-41"/>
     </g>
    </g>
   </g>
   <g id="line2d_21">
    <path clip-path="url(#p5c8f702449)" d="M 38.437028 152.973124 
L 41.268515 153.079541 
L 44.383151 153.428541 
L 47.780935 154.041575 
L 51.745017 154.98514 
L 56.841693 156.438186 
L 63.637262 158.622682 
L 73.264318 161.967576 
L 88.271199 167.440566 
L 108.941054 175.19358 
L 123.098489 180.768144 
L 153.3954 192.776337 
L 164.15505 196.748463 
L 173.498957 199.965145 
L 183.975459 203.321163 
L 205.211612 210.052857 
L 216.254411 213.845179 
L 228.996102 218.467382 
L 244.286132 224.261319 
L 263.540244 231.807276 
L 288.174181 241.713964 
L 319.886835 254.718277 
L 321.585727 255.420538 
L 321.585727 255.420538 
" style="fill:none;stroke:#000000;stroke-linecap:round;"/>
   </g>
   <g id="line2d_22">
    <path clip-path="url(#p5c8f702449)" d="M 38.437028 152.422843 
L 41.551664 152.53851 
L 44.666299 152.871053 
L 48.347232 153.493899 
L 52.877612 154.50688 
L 58.540585 156.014284 
L 66.468749 158.372763 
L 78.077846 162.077387 
L 97.048809 168.387515 
L 111.489392 173.41859 
L 130.743504 180.121303 
L 140.37056 183.218793 
L 150.563913 186.252204 
L 168.968578 191.68633 
L 179.44508 195.061672 
L 191.337325 199.13829 
L 205.777909 204.335071 
L 223.899426 211.103068 
L 247.400768 220.131026 
L 277.980827 232.13007 
L 318.187943 248.157535 
L 321.585727 249.520887 
L 321.585727 249.520887 
" style="fill:none;stroke:#000000;stroke-linecap:round;"/>
   </g>
   <g id="patch_3">
    <path d="M 38.437028 255.420538 
L 38.437028 2.834646 
" style="fill:none;stroke:#000000;stroke-linecap:square;stroke-linejoin:miter;"/>
   </g>
   <g id="patch_4">
    <path d="M 321.585727 255.420538 
L 321.585727 2.834646 
" style="fill:none;stroke:#000000;stroke-linecap:square;stroke-linejoin:miter;stroke-width:0.8;"/>
   </g>
   <g id="patch_5">
    <path d="M 38.437028 255.420538 
L 321.585727 255.420538 
" style="fill:none;stroke:#000000;stroke-linecap:square;stroke-linejoin:miter;"/>
   </g>
   <g id="patch_6">
    <path d="M 38.437028 2.834646 
L 321.585727 2.834646 
" style="fill:none;stroke:#000000;stroke-linecap:square;stroke-linejoin:miter;stroke-width:0.8;"/>
   </g>
   <g id="line2d_23">
    <path clip-path="url(#p5c8f702449)" d="M 38.437028 151.872561 
L 41.551664 151.975377 
L 44.949448 152.306377 
L 48.91353 152.92575 
L 53.727058 153.913609 
L 60.239478 155.497524 
L 69.300236 157.94701 
L 83.74082 162.106344 
L 99.313998 166.798207 
L 118.001812 172.453426 
L 127.912017 175.17994 
L 147.166128 180.402679 
L 157.076333 183.392431 
L 168.402281 187.052277 
L 182.276567 191.777591 
L 200.114935 198.099432 
L 223.333128 206.577389 
L 253.630039 217.88835 
L 293.837155 233.148655 
L 321.585727 243.783203 
L 321.585727 243.783203 
" style="fill:none;stroke:#000000;stroke-linecap:round;"/>
   </g>
   <g id="line2d_24">
    <path clip-path="url(#p5c8f702449)" d="M 38.437028 151.32228 
L 41.834812 151.429121 
L 45.515745 151.767225 
L 49.762976 152.382483 
L 55.142801 153.392709 
L 62.504667 155.012651 
L 73.547467 157.688818 
L 89.686942 161.836486 
L 110.073649 167.115383 
L 134.141288 173.049967 
L 143.768344 175.789587 
L 155.377441 179.337314 
L 170.101173 184.081183 
L 189.638433 190.62396 
L 215.688114 199.595954 
L 250.515404 211.838105 
L 296.95179 228.408464 
L 321.585727 237.272098 
L 321.585727 237.272098 
" style="fill:none;stroke:#000000;stroke-linecap:round;"/>
   </g>
   <g id="line2d_25">
    <path clip-path="url(#p5c8f702449)" d="M 38.437028 150.771998 
L 42.117961 150.879234 
L 46.082043 151.213134 
L 50.895571 151.847912 
L 57.124842 152.902873 
L 66.1856 154.680316 
L 80.343035 157.705043 
L 107.808459 163.649452 
L 118.001812 165.866543 
L 126.779422 168.022389 
L 136.972775 170.766957 
L 150.280764 174.59188 
L 169.534876 180.375977 
L 201.813827 190.336585 
L 321.585727 227.519211 
L 321.585727 227.519211 
" style="fill:none;stroke:#000000;stroke-linecap:round;"/>
   </g>
   <g id="line2d_26">
    <path clip-path="url(#p5c8f702449)" d="M 38.437028 150.221716 
L 42.684258 150.340097 
L 47.214638 150.697677 
L 52.877612 151.379515 
L 60.805775 152.578928 
L 72.981169 154.668367 
L 109.224203 161.248521 
L 117.718664 163.08869 
L 128.478314 165.66269 
L 148.015574 170.612867 
L 169.818024 176.064724 
L 182.559716 179.026318 
L 192.186772 181.046799 
L 199.831786 182.430072 
L 205.777909 183.291885 
L 210.874586 183.810782 
L 215.688114 184.071975 
L 228.996102 184.592796 
L 234.659076 185.176894 
L 241.454645 186.115398 
L 250.232255 187.569203 
L 261.558203 189.684777 
L 276.565084 192.728164 
L 296.385493 196.986221 
L 321.585727 202.621675 
L 321.585727 202.621675 
" style="fill:none;stroke:#000000;stroke-linecap:round;"/>
   </g>
   <g id="line2d_27">
    <path clip-path="url(#p5c8f702449)" d="M 38.437028 149.671435 
L 42.967407 149.778892 
L 48.064084 150.12289 
L 54.859652 150.821515 
L 64.769857 152.083952 
L 81.47563 154.460299 
L 103.844377 157.801628 
L 113.188284 159.570877 
L 139.521113 164.70112 
L 146.316682 165.740431 
L 151.696508 166.349843 
L 156.226887 166.653279 
L 161.323563 166.757981 
L 169.251727 166.898067 
L 174.348403 167.244429 
L 180.294526 167.880322 
L 187.939541 168.938623 
L 197.849746 170.55239 
L 210.874586 172.911796 
L 228.429805 176.331859 
L 252.214296 181.206842 
L 284.776396 188.122976 
L 321.585727 196.12474 
L 321.585727 196.12474 
" style="fill:none;stroke:#000000;stroke-linecap:round;"/>
   </g>
   <g id="line2d_28">
    <path clip-path="url(#p5c8f702449)" d="M 38.437028 149.121153 
L 43.816853 149.233763 
L 50.046125 149.595974 
L 58.823734 150.345038 
L 73.547467 151.851574 
L 96.482511 154.424095 
L 106.959013 155.976412 
L 118.001812 157.554048 
L 123.947935 158.176804 
L 128.761463 158.453718 
L 133.574991 158.491289 
L 142.069452 158.496763 
L 147.166128 158.778567 
L 153.112251 159.345557 
L 160.757266 160.3158 
L 170.66747 161.811858 
L 183.975459 164.060002 
L 201.813827 167.310657 
L 226.447764 172.040259 
L 260.425608 178.804878 
L 308.277738 188.573292 
L 321.585727 191.320069 
L 321.585727 191.320069 
" style="fill:none;stroke:#000000;stroke-linecap:round;"/>
   </g>
   <g id="line2d_29">
    <path clip-path="url(#p5c8f702449)" d="M 38.437028 148.570872 
L 44.949448 148.679326 
L 53.443909 149.065276 
L 67.318195 149.951899 
L 89.686942 151.60772 
L 109.7905 153.40367 
L 114.320879 153.46318 
L 128.761463 153.387917 
L 134.141288 153.771371 
L 140.936857 154.484852 
L 149.997615 155.673254 
L 162.173009 157.510901 
L 178.595634 160.228284 
L 201.24753 164.216346 
L 232.677036 169.990198 
L 277.131381 178.39833 
L 321.585727 186.954225 
L 321.585727 186.954225 
" style="fill:none;stroke:#000000;stroke-linecap:round;"/>
   </g>
   <g id="line2d_30">
    <path clip-path="url(#p5c8f702449)" d="M 38.437028 148.02059 
L 48.064084 148.133454 
L 63.354113 148.576119 
L 85.722861 149.431355 
L 98.181403 150.035185 
L 102.711783 149.996737 
L 116.30292 149.637946 
L 121.399597 149.9028 
L 127.912017 150.471493 
L 136.689626 151.479062 
L 148.298723 153.048355 
L 164.438199 155.470483 
L 186.523798 159.023602 
L 217.387006 164.227276 
L 260.991905 171.818532 
L 321.585727 182.595433 
L 321.585727 182.595433 
" style="fill:none;stroke:#000000;stroke-linecap:round;"/>
   </g>
   <g id="line2d_31">
    <path clip-path="url(#p5c8f702449)" d="M 38.437028 147.470309 
L 85.439712 147.581306 
L 91.668983 147.549126 
L 96.482511 147.282729 
L 103.844377 146.839017 
L 108.374757 146.843186 
L 113.754582 147.088166 
L 120.550151 147.629071 
L 129.894058 148.61124 
L 142.635749 150.189098 
L 160.474117 152.636952 
L 185.391203 156.29356 
L 220.501641 161.6839 
L 270.052664 169.529752 
L 321.585727 177.844308 
L 321.585727 177.844308 
" style="fill:none;stroke:#000000;stroke-linecap:round;"/>
   </g>
   <g id="line2d_32">
    <path clip-path="url(#p5c8f702449)" d="M 38.437028 146.920027 
L 48.064084 146.807164 
L 63.354113 146.364518 
L 87.704902 145.447951 
L 98.464552 144.618744 
L 102.994931 144.622329 
L 108.657905 144.858959 
L 116.30292 145.415059 
L 127.062571 146.439455 
L 142.635749 148.164627 
L 165.853943 150.977852 
L 200.964381 155.472758 
L 251.931147 162.235942 
L 321.585727 171.713547 
L 321.585727 171.713547 
" style="fill:none;stroke:#000000;stroke-linecap:round;"/>
   </g>
   <g id="line2d_33">
    <path clip-path="url(#p5c8f702449)" d="M 38.437028 146.369746 
L 44.949448 146.261292 
L 53.443909 145.875342 
L 67.318195 144.987553 
L 82.891374 143.807812 
L 91.668983 142.883842 
L 95.916214 142.751824 
L 101.296039 142.827776 
L 108.657905 143.178307 
L 119.700705 143.954349 
L 141.220006 145.740465 
L 170.950619 148.155174 
L 187.373244 149.270164 
L 199.265489 149.865902 
L 207.476801 150.073978 
L 213.139775 150.018313 
L 216.820708 149.793136 
L 219.369047 149.434919 
L 221.067939 148.96932 
L 222.200534 148.418156 
L 224.465723 147.020523 
L 225.881467 146.544557 
L 227.863508 146.15044 
L 230.694995 145.829782 
L 234.942225 145.586352 
L 241.171496 145.463948 
L 250.515404 145.52136 
L 264.106541 145.846086 
L 283.92695 146.560443 
L 312.808117 147.841939 
L 321.585727 148.26384 
L 321.585727 148.26384 
" style="fill:none;stroke:#000000;stroke-linecap:round;"/>
   </g>
   <g id="line2d_34">
    <path clip-path="url(#p5c8f702449)" d="M 38.437028 145.819464 
L 43.816853 145.706855 
L 50.046125 145.344643 
L 58.823734 144.595563 
L 75.246359 142.925757 
L 80.626184 142.181306 
L 85.722861 141.516264 
L 89.686942 141.244865 
L 94.50047 141.151724 
L 101.296039 141.261861 
L 114.887177 141.761943 
L 126.779422 142.10758 
L 133.291842 142.09395 
L 137.539073 141.886278 
L 140.37056 141.539919 
L 142.069452 141.138367 
L 143.202047 140.680457 
L 144.334641 139.955769 
L 145.467236 139.227617 
L 146.599831 138.747408 
L 148.298723 138.302189 
L 150.847061 137.910406 
L 154.527995 137.59487 
L 160.190969 137.359836 
L 168.402281 137.259057 
L 180.860824 137.348821 
L 199.265489 137.7213 
L 227.29721 138.529315 
L 270.618961 140.019176 
L 321.585727 141.932746 
L 321.585727 141.932746 
" style="fill:none;stroke:#000000;stroke-linecap:round;"/>
   </g>
   <g id="line2d_35">
    <path clip-path="url(#p5c8f702449)" d="M 38.437028 145.269183 
L 42.967407 145.161726 
L 48.064084 144.817727 
L 54.859652 144.119103 
L 65.053006 142.819965 
L 74.680061 141.42478 
L 82.041928 140.251794 
L 86.006009 139.912558 
L 91.102686 139.719983 
L 101.296039 139.622718 
L 108.374757 139.447596 
L 112.338838 139.139841 
L 114.604028 138.777851 
L 116.019771 138.384518 
L 117.152366 137.861743 
L 119.983853 136.161829 
L 121.399597 135.730824 
L 123.664786 135.309192 
L 127.062571 134.943674 
L 132.159247 134.65077 
L 139.804262 134.46012 
L 151.13021 134.417628 
L 168.402281 134.591399 
L 195.584556 135.107666 
L 239.472604 136.184762 
L 314.790158 138.279886 
L 321.585727 138.476157 
L 321.585727 138.476157 
" style="fill:none;stroke:#000000;stroke-linecap:round;"/>
   </g>
   <g id="line2d_36">
    <path clip-path="url(#p5c8f702449)" d="M 38.437028 144.718901 
L 42.684258 144.600521 
L 47.214638 144.242941 
L 52.877612 143.561103 
L 60.805775 142.361733 
L 70.999128 140.598197 
L 78.927292 139.144213 
L 82.891374 138.731218 
L 88.837496 138.366015 
L 96.482511 137.862485 
L 99.313998 137.476981 
L 101.01289 137.073885 
L 102.145485 136.635542 
L 103.27808 135.934063 
L 104.693823 135.000112 
L 105.826418 134.526671 
L 107.52531 134.079256 
L 110.073649 133.672806 
L 113.754582 133.327962 
L 119.417556 133.040285 
L 127.912017 132.849936 
L 140.936857 132.798274 
L 161.606712 132.959839 
L 195.584556 133.470022 
L 255.328931 134.614504 
L 321.585727 136.009913 
L 321.585727 136.009913 
" style="fill:none;stroke:#000000;stroke-linecap:round;"/>
   </g>
   <g id="line2d_37">
    <path clip-path="url(#p5c8f702449)" d="M 38.437028 144.16862 
L 42.117961 144.061384 
L 46.082043 143.727483 
L 50.895571 143.092706 
L 57.124842 142.037726 
L 66.1856 140.260537 
L 77.2284 138.016768 
L 82.041928 137.474312 
L 88.554348 136.739667 
L 90.819537 136.280422 
L 92.235281 135.797775 
L 93.367875 135.156289 
L 95.066768 134.007904 
L 96.199362 133.531534 
L 97.898255 133.080432 
L 100.446593 132.668834 
L 104.127526 132.31691 
L 109.7905 132.017923 
L 118.56811 131.803341 
L 132.159247 131.716094 
L 154.527995 131.818727 
L 193.602515 132.246326 
L 268.63692 133.320303 
L 321.585727 134.143429 
L 321.585727 134.143429 
" style="fill:none;stroke:#000000;stroke-linecap:round;"/>
   </g>
   <g id="line2d_38">
    <path clip-path="url(#p5c8f702449)" d="M 38.437028 143.618338 
L 41.834812 143.511496 
L 45.515745 143.173393 
L 49.762976 142.558134 
L 55.142801 141.547908 
L 62.787816 139.863846 
L 75.246359 137.047992 
L 83.457671 135.693591 
L 85.156563 135.129008 
L 86.289158 134.491921 
L 88.271199 133.175468 
L 89.686942 132.648018 
L 91.668983 132.201479 
L 94.50047 131.815827 
L 98.747701 131.477764 
L 105.260121 131.201258 
L 115.453474 131.012292 
L 132.159247 130.94829 
L 161.889861 131.085718 
L 220.218493 131.611568 
L 321.585727 132.71621 
L 321.585727 132.71621 
" style="fill:none;stroke:#000000;stroke-linecap:round;"/>
   </g>
   <g id="line2d_39">
    <path clip-path="url(#p5c8f702449)" d="M 38.437028 143.068057 
L 41.551664 142.965241 
L 44.949448 142.634241 
L 48.91353 142.014868 
L 53.727058 141.027012 
L 60.239478 139.443976 
L 73.264318 136.178771 
L 78.077846 135.174535 
L 79.776738 134.577206 
L 80.909333 133.916297 
L 82.608225 132.738005 
L 83.74082 132.252668 
L 85.439712 131.795959 
L 87.98805 131.382496 
L 91.668983 131.03257 
L 97.331957 130.737364 
L 106.392716 130.515324 
L 121.399597 130.397309 
L 148.865021 130.432782 
L 206.627355 130.766804 
L 321.585727 131.636109 
L 321.585727 131.636109 
" style="fill:none;stroke:#000000;stroke-linecap:round;"/>
   </g>
   <g id="line2d_40">
    <path clip-path="url(#p5c8f702449)" d="M 38.437028 142.517775 
L 41.551664 142.402108 
L 44.666299 142.069565 
L 48.347232 141.446719 
L 52.877612 140.433746 
L 58.540585 138.926544 
L 71.565426 135.331459 
L 74.396913 134.560205 
L 75.812656 133.948089 
L 76.945251 133.173426 
L 78.077846 132.379656 
L 79.210441 131.86044 
L 80.909333 131.382321 
L 83.174522 130.996666 
L 86.572307 130.653052 
L 91.952132 130.356709 
L 100.446593 130.136094 
L 115.170325 130.003792 
L 144.051493 130.002261 
L 211.724032 130.267212 
L 321.585727 130.835818 
L 321.585727 130.835818 
" style="fill:none;stroke:#000000;stroke-linecap:round;"/>
   </g>
   <g id="line2d_41">
    <path clip-path="url(#p5c8f702449)" d="M 38.437028 141.967494 
L 41.268515 141.861077 
L 44.383151 141.512077 
L 47.780935 140.899043 
L 51.745017 139.955484 
L 56.841693 138.502365 
L 71.565426 133.911326 
L 72.69802 133.27861 
L 74.96321 131.745474 
L 76.378954 131.236571 
L 78.360994 130.811185 
L 81.192481 130.454313 
L 85.439712 130.15625 
L 92.235281 129.919785 
L 104.127526 129.756717 
L 127.912017 129.691967 
L 186.523798 129.805696 
L 321.585727 130.258783 
L 321.585727 130.258783 
" style="fill:none;stroke:#000000;stroke-linecap:round;"/>
   </g>
   <g id="line2d_42">
    <path clip-path="url(#p5c8f702449)" d="M 38.437028 116.28769 
L 41.268515 116.394107 
L 44.383151 116.743107 
L 47.780935 117.356141 
L 51.745017 118.2997 
L 56.841693 119.752819 
L 71.565426 124.343858 
L 72.69802 124.976574 
L 74.96321 126.50971 
L 76.378954 127.018613 
L 78.360994 127.443998 
L 81.192481 127.800871 
L 85.439712 128.098934 
L 92.235281 128.335399 
L 104.127526 128.498466 
L 127.912017 128.563217 
L 186.523798 128.449488 
L 321.585727 127.996401 
L 321.585727 127.996401 
" style="fill:none;stroke:#000000;stroke-linecap:round;"/>
   </g>
   <g id="line2d_43">
    <path clip-path="url(#p5c8f702449)" d="M 38.437028 115.737408 
L 41.551664 115.853076 
L 44.666299 116.185619 
L 48.347232 116.808465 
L 52.877612 117.821438 
L 58.540585 119.32864 
L 71.565426 122.923725 
L 74.396913 123.694979 
L 75.812656 124.307095 
L 76.945251 125.081758 
L 78.077846 125.875527 
L 79.210441 126.394744 
L 80.909333 126.872863 
L 83.174522 127.258518 
L 86.572307 127.602131 
L 91.952132 127.898475 
L 100.446593 128.11909 
L 115.170325 128.251392 
L 144.051493 128.252923 
L 211.724032 127.987972 
L 321.585727 127.419366 
L 321.585727 127.419366 
" style="fill:none;stroke:#000000;stroke-linecap:round;"/>
   </g>
   <g id="line2d_44">
    <path clip-path="url(#p5c8f702449)" d="M 38.437028 115.187127 
L 41.551664 115.289943 
L 44.949448 115.620943 
L 48.91353 116.240316 
L 53.727058 117.228171 
L 60.239478 118.811207 
L 73.264318 122.076413 
L 78.077846 123.080649 
L 79.776738 123.677977 
L 80.909333 124.338887 
L 82.608225 125.517179 
L 83.74082 126.002516 
L 85.439712 126.459224 
L 87.98805 126.872688 
L 91.668983 127.222614 
L 97.331957 127.51782 
L 106.392716 127.73986 
L 121.399597 127.857874 
L 148.865021 127.822402 
L 206.627355 127.48838 
L 321.585727 126.619075 
L 321.585727 126.619075 
" style="fill:none;stroke:#000000;stroke-linecap:round;"/>
   </g>
   <g id="line2d_45">
    <path clip-path="url(#p5c8f702449)" d="M 38.437028 114.636845 
L 41.834812 114.743687 
L 45.515745 115.081791 
L 49.762976 115.697049 
L 55.142801 116.707276 
L 62.787816 118.391337 
L 75.246359 121.207192 
L 83.457671 122.561592 
L 85.156563 123.126176 
L 86.289158 123.763263 
L 88.271199 125.079716 
L 89.686942 125.607166 
L 91.668983 126.053704 
L 94.50047 126.439357 
L 98.747701 126.77742 
L 105.260121 127.053926 
L 115.453474 127.242892 
L 132.159247 127.306894 
L 161.889861 127.169466 
L 220.218493 126.643616 
L 321.585727 125.538974 
L 321.585727 125.538974 
" style="fill:none;stroke:#000000;stroke-linecap:round;"/>
   </g>
   <g id="line2d_46">
    <path clip-path="url(#p5c8f702449)" d="M 38.437028 114.086564 
L 42.117961 114.1938 
L 46.082043 114.5277 
L 50.895571 115.162478 
L 57.124842 116.217457 
L 66.1856 117.994646 
L 77.2284 120.238416 
L 82.041928 120.780872 
L 88.554348 121.515517 
L 90.819537 121.974762 
L 92.235281 122.457409 
L 93.367875 123.098895 
L 95.066768 124.24728 
L 96.199362 124.72365 
L 97.898255 125.174752 
L 100.446593 125.58635 
L 104.127526 125.938273 
L 109.7905 126.237261 
L 118.56811 126.451843 
L 132.159247 126.53909 
L 154.527995 126.436457 
L 193.602515 126.008858 
L 268.63692 124.934881 
L 321.585727 124.111755 
L 321.585727 124.111755 
" style="fill:none;stroke:#000000;stroke-linecap:round;"/>
   </g>
   <g id="line2d_47">
    <path clip-path="url(#p5c8f702449)" d="M 38.437028 113.536282 
L 42.684258 113.654663 
L 47.214638 114.012243 
L 52.877612 114.694081 
L 60.805775 115.89345 
L 70.999128 117.656987 
L 78.927292 119.110971 
L 82.891374 119.523965 
L 88.837496 119.889169 
L 96.482511 120.392698 
L 99.313998 120.778203 
L 101.01289 121.181299 
L 102.145485 121.619642 
L 103.27808 122.321121 
L 104.693823 123.255072 
L 105.826418 123.728513 
L 107.52531 124.175927 
L 110.073649 124.582377 
L 113.754582 124.927222 
L 119.417556 125.214899 
L 127.912017 125.405248 
L 140.936857 125.45691 
L 161.606712 125.295344 
L 195.584556 124.785162 
L 255.328931 123.64068 
L 321.585727 122.24527 
L 321.585727 122.24527 
" style="fill:none;stroke:#000000;stroke-linecap:round;"/>
   </g>
   <g id="line2d_48">
    <path clip-path="url(#p5c8f702449)" d="M 38.437028 112.986001 
L 42.967407 113.093457 
L 48.064084 113.437456 
L 54.859652 114.136081 
L 65.053006 115.435219 
L 74.680061 116.830404 
L 82.041928 118.003389 
L 86.006009 118.342626 
L 91.102686 118.5352 
L 101.296039 118.632466 
L 108.374757 118.807588 
L 112.338838 119.115343 
L 114.604028 119.477333 
L 116.019771 119.870666 
L 117.152366 120.393441 
L 119.983853 122.093355 
L 121.399597 122.524359 
L 123.664786 122.945992 
L 127.062571 123.311509 
L 132.159247 123.604414 
L 139.804262 123.795064 
L 151.13021 123.837556 
L 168.402281 123.663785 
L 195.584556 123.147518 
L 239.472604 122.070422 
L 314.790158 119.975298 
L 321.585727 119.779027 
L 321.585727 119.779027 
" style="fill:none;stroke:#000000;stroke-linecap:round;"/>
   </g>
   <g id="line2d_49">
    <path clip-path="url(#p5c8f702449)" d="M 38.437028 112.435719 
L 43.816853 112.548329 
L 50.046125 112.91054 
L 58.823734 113.659621 
L 75.246359 115.329427 
L 80.626184 116.073878 
L 85.722861 116.73892 
L 89.686942 117.010319 
L 94.50047 117.10346 
L 101.296039 116.993322 
L 114.887177 116.493241 
L 126.779422 116.147604 
L 133.291842 116.161234 
L 137.539073 116.368906 
L 140.37056 116.715265 
L 142.069452 117.116817 
L 143.202047 117.574727 
L 144.334641 118.299415 
L 145.467236 119.027567 
L 146.599831 119.507775 
L 148.298723 119.952995 
L 150.847061 120.344778 
L 154.527995 120.660314 
L 160.190969 120.895348 
L 168.402281 120.996126 
L 180.860824 120.906362 
L 199.265489 120.533884 
L 227.29721 119.725868 
L 270.618961 118.236008 
L 321.585727 116.322438 
L 321.585727 116.322438 
" style="fill:none;stroke:#000000;stroke-linecap:round;"/>
   </g>
   <g id="line2d_50">
    <path clip-path="url(#p5c8f702449)" d="M 38.437028 111.885438 
L 44.949448 111.993892 
L 53.443909 112.379842 
L 67.318195 113.267631 
L 82.891374 114.447371 
L 91.668983 115.371342 
L 95.916214 115.503359 
L 101.296039 115.427408 
L 108.657905 115.076877 
L 119.700705 114.300835 
L 141.220006 112.514719 
L 170.950619 110.10001 
L 187.373244 108.98502 
L 199.265489 108.389282 
L 207.476801 108.181206 
L 213.139775 108.236871 
L 216.820708 108.462047 
L 219.369047 108.820265 
L 221.067939 109.285864 
L 222.200534 109.837027 
L 224.465723 111.23466 
L 225.881467 111.710627 
L 227.863508 112.104744 
L 230.694995 112.425401 
L 234.942225 112.668832 
L 241.171496 112.791236 
L 250.515404 112.733823 
L 264.106541 112.409097 
L 283.92695 111.694741 
L 312.808117 110.413245 
L 321.585727 109.991344 
L 321.585727 109.991344 
" style="fill:none;stroke:#000000;stroke-linecap:round;"/>
   </g>
   <g id="line2d_51">
    <path clip-path="url(#p5c8f702449)" d="M 38.437028 111.335156 
L 48.064084 111.44802 
L 63.354113 111.890666 
L 87.704902 112.807233 
L 98.464552 113.636439 
L 102.994931 113.632855 
L 108.657905 113.396225 
L 116.30292 112.840125 
L 127.062571 111.815729 
L 142.635749 110.090557 
L 165.853943 107.277332 
L 200.964381 102.782426 
L 251.931147 96.019241 
L 321.585727 86.541636 
L 321.585727 86.541636 
" style="fill:none;stroke:#000000;stroke-linecap:round;"/>
   </g>
   <g id="line2d_52">
    <path clip-path="url(#p5c8f702449)" d="M 38.437028 110.784875 
L 85.439712 110.673878 
L 91.668983 110.706058 
L 96.482511 110.972454 
L 103.844377 111.416167 
L 108.374757 111.411998 
L 113.754582 111.167018 
L 120.550151 110.626113 
L 129.894058 109.643944 
L 142.635749 108.066086 
L 160.474117 105.618232 
L 185.391203 101.961624 
L 220.501641 96.571283 
L 270.052664 88.725432 
L 321.585727 80.410876 
L 321.585727 80.410876 
" style="fill:none;stroke:#000000;stroke-linecap:round;"/>
   </g>
   <g id="line2d_53">
    <path clip-path="url(#p5c8f702449)" d="M 38.437028 110.234593 
L 48.064084 110.12173 
L 63.354113 109.679065 
L 85.722861 108.823829 
L 98.181403 108.219998 
L 102.711783 108.258447 
L 116.30292 108.617238 
L 121.399597 108.352384 
L 127.912017 107.783691 
L 136.689626 106.776122 
L 148.298723 105.206829 
L 164.438199 102.784701 
L 186.523798 99.231581 
L 217.387006 94.027908 
L 260.991905 86.436652 
L 321.585727 75.659751 
L 321.585727 75.659751 
" style="fill:none;stroke:#000000;stroke-linecap:round;"/>
   </g>
   <g id="line2d_54">
    <path clip-path="url(#p5c8f702449)" d="M 38.437028 109.684312 
L 44.949448 109.575858 
L 53.443909 109.189908 
L 67.318195 108.303285 
L 89.686942 106.647464 
L 109.7905 104.851513 
L 114.320879 104.792004 
L 128.761463 104.867267 
L 134.141288 104.483813 
L 140.936857 103.770332 
L 149.997615 102.58193 
L 162.173009 100.744283 
L 178.595634 98.026899 
L 201.24753 94.038837 
L 232.677036 88.264986 
L 277.131381 79.856854 
L 321.585727 71.300958 
L 321.585727 71.300958 
" style="fill:none;stroke:#000000;stroke-linecap:round;"/>
   </g>
   <g id="line2d_55">
    <path clip-path="url(#p5c8f702449)" d="M 38.437028 109.13403 
L 43.816853 109.021421 
L 50.046125 108.659209 
L 58.823734 107.910146 
L 73.547467 106.403609 
L 96.482511 103.831089 
L 106.959013 102.278772 
L 118.001812 100.701136 
L 123.947935 100.07838 
L 128.761463 99.801466 
L 133.574991 99.763895 
L 142.069452 99.758421 
L 147.166128 99.476617 
L 153.112251 98.909627 
L 160.757266 97.939384 
L 170.66747 96.443326 
L 183.975459 94.195182 
L 201.813827 90.944527 
L 226.447764 86.214925 
L 260.425608 79.450306 
L 308.277738 69.681892 
L 321.585727 66.935115 
L 321.585727 66.935115 
" style="fill:none;stroke:#000000;stroke-linecap:round;"/>
   </g>
   <g id="line2d_56">
    <path clip-path="url(#p5c8f702449)" d="M 38.437028 108.583749 
L 42.967407 108.476292 
L 48.064084 108.132293 
L 54.859652 107.433669 
L 64.769857 106.171231 
L 81.47563 103.794885 
L 103.844377 100.453555 
L 113.188284 98.684307 
L 139.521113 93.554064 
L 146.316682 92.514753 
L 151.696508 91.90534 
L 156.226887 91.601905 
L 161.323563 91.497203 
L 169.251727 91.357117 
L 174.348403 91.010755 
L 180.294526 90.374862 
L 187.939541 89.316561 
L 197.849746 87.702794 
L 210.874586 85.343388 
L 228.429805 81.923325 
L 252.214296 77.048342 
L 284.776396 70.132208 
L 321.585727 62.130444 
L 321.585727 62.130444 
" style="fill:none;stroke:#000000;stroke-linecap:round;"/>
   </g>
   <g id="line2d_57">
    <path clip-path="url(#p5c8f702449)" d="M 38.437028 108.033467 
L 42.684258 107.915087 
L 47.214638 107.557507 
L 52.877612 106.875669 
L 60.805775 105.676256 
L 72.981169 103.586816 
L 109.224203 97.006663 
L 117.718664 95.166494 
L 128.478314 92.592494 
L 148.015574 87.642317 
L 169.818024 82.190459 
L 182.559716 79.228866 
L 192.186772 77.208384 
L 199.831786 75.825111 
L 205.777909 74.963299 
L 210.874586 74.444402 
L 215.688114 74.183209 
L 228.996102 73.662388 
L 234.659076 73.078289 
L 241.454645 72.139786 
L 250.232255 70.685981 
L 261.558203 68.570407 
L 276.565084 65.52702 
L 296.385493 61.268963 
L 321.585727 55.633509 
L 321.585727 55.633509 
" style="fill:none;stroke:#000000;stroke-linecap:round;"/>
   </g>
   <g id="line2d_58">
    <path clip-path="url(#p5c8f702449)" d="M 38.437028 107.483186 
L 42.117961 107.37595 
L 46.082043 107.042049 
L 50.895571 106.407272 
L 57.124842 105.352311 
L 66.1856 103.574868 
L 80.343035 100.550141 
L 107.808459 94.605731 
L 118.001812 92.388641 
L 126.779422 90.232795 
L 136.972775 87.488226 
L 150.280764 83.663304 
L 169.534876 77.879207 
L 201.813827 67.918599 
L 321.585727 30.735973 
L 321.585727 30.735973 
" style="fill:none;stroke:#000000;stroke-linecap:round;"/>
   </g>
   <g id="line2d_59">
    <path clip-path="url(#p5c8f702449)" d="M 38.437028 106.932904 
L 41.834812 106.826062 
L 45.515745 106.487959 
L 49.762976 105.8727 
L 55.142801 104.862475 
L 62.504667 103.242533 
L 73.547467 100.566365 
L 89.686942 96.418698 
L 110.073649 91.139801 
L 134.141288 85.205217 
L 143.768344 82.465597 
L 155.377441 78.917869 
L 170.101173 74.174001 
L 189.638433 67.631224 
L 215.688114 58.65923 
L 250.515404 46.417079 
L 296.95179 29.84672 
L 321.585727 20.983086 
L 321.585727 20.983086 
" style="fill:none;stroke:#000000;stroke-linecap:round;"/>
   </g>
   <g id="line2d_60">
    <path clip-path="url(#p5c8f702449)" d="M 38.437028 106.382623 
L 41.551664 106.279807 
L 44.949448 105.948807 
L 48.91353 105.329433 
L 53.727058 104.341575 
L 60.239478 102.757659 
L 69.300236 100.308174 
L 83.74082 96.14884 
L 99.313998 91.456977 
L 118.001812 85.801758 
L 127.912017 83.075244 
L 147.166128 77.852505 
L 157.076333 74.862753 
L 168.402281 71.202907 
L 182.276567 66.477593 
L 200.114935 60.155752 
L 223.333128 51.677795 
L 253.630039 40.366834 
L 293.837155 25.106529 
L 321.585727 14.47198 
L 321.585727 14.47198 
" style="fill:none;stroke:#000000;stroke-linecap:round;"/>
   </g>
   <g id="line2d_61">
    <path clip-path="url(#p5c8f702449)" d="M 38.437028 105.832341 
L 41.551664 105.716674 
L 44.666299 105.384131 
L 48.347232 104.761285 
L 52.877612 103.748304 
L 58.540585 102.2409 
L 66.468749 99.882421 
L 78.077846 96.177797 
L 97.048809 89.867669 
L 111.489392 84.836594 
L 130.743504 78.13388 
L 140.37056 75.036391 
L 150.563913 72.00298 
L 168.968578 66.568854 
L 179.44508 63.193512 
L 191.337325 59.116894 
L 205.777909 53.920112 
L 223.899426 47.152116 
L 247.400768 38.124158 
L 277.980827 26.125114 
L 318.187943 10.097649 
L 321.585727 8.734297 
L 321.585727 8.734297 
" style="fill:none;stroke:#000000;stroke-linecap:round;"/>
   </g>
   <g id="line2d_62">
    <path clip-path="url(#p5c8f702449)" d="M 38.437028 105.28206 
L 41.268515 105.175643 
L 44.383151 104.826642 
L 47.780935 104.213609 
L 51.745017 103.270044 
L 56.841693 101.816998 
L 63.637262 99.632502 
L 73.264318 96.287608 
L 88.271199 90.814617 
L 108.941054 83.061604 
L 123.098489 77.48704 
L 153.3954 65.478847 
L 164.15505 61.506721 
L 173.498957 58.290039 
L 183.975459 54.934021 
L 205.211612 48.202327 
L 216.254411 44.410005 
L 228.996102 39.787802 
L 244.286132 33.993864 
L 263.540244 26.447907 
L 288.174181 16.541219 
L 319.886835 3.536907 
L 321.585727 2.834646 
L 321.585727 2.834646 
" style="fill:none;stroke:#000000;stroke-linecap:round;"/>
   </g>
  </g>
  <g id="axes_2">
   <g id="patch_7">
    <path d="M 334.782455 255.420538 
L 429.165354 255.420538 
L 429.165354 2.834646 
L 334.782455 2.834646 
z
" style="fill:#ffffff;"/>
   </g>
   <g id="matplotlib.axis_3">
    <g id="xtick_6">
     <g id="line2d_63">
      <path clip-path="url(#pda826fc10d)" d="M 339.188808 255.420538 
L 339.188808 2.834646 
" style="fill:none;stroke:#000000;stroke-linecap:square;stroke-opacity:0.1;stroke-width:0.5;"/>
     </g>
     <g id="line2d_64">
      <defs>
       <path d="M 0 0 
L 0 3.5 
" id="m0405ed42d3" style="stroke:#000000;stroke-opacity:0.1;stroke-width:0.5;"/>
      </defs>
      <g>
       <use style="fill-opacity:0.1;stroke:#000000;stroke-opacity:0.1;stroke-width:0.5;" x="339.188808" xlink:href="#m0405ed42d3" y="255.420538"/>
      </g>
     </g>
     <g id="text_13">
      <!-- 0.01 -->
      <g transform="translate(331.661371 267.95534)scale(0.08 -0.08)">
       <use transform="scale(0.996264)" xlink:href="#CMR17-48"/>
       <use transform="translate(45.690477 0)scale(0.996264)" xlink:href="#CMR17-46"/>
       <use transform="translate(70.561536 0)scale(0.996264)" xlink:href="#CMR17-48"/>
       <use transform="translate(116.252013 0)scale(0.996264)" xlink:href="#CMR17-49"/>
      </g>
     </g>
    </g>
    <g id="xtick_7">
     <g id="line2d_65">
      <path clip-path="url(#pda826fc10d)" d="M 373.741581 255.420538 
L 373.741581 2.834646 
" style="fill:none;stroke:#000000;stroke-linecap:square;stroke-opacity:0.1;stroke-width:0.5;"/>
     </g>
     <g id="line2d_66">
      <g>
       <use style="fill-opacity:0.1;stroke:#000000;stroke-opacity:0.1;stroke-width:0.5;" x="373.741581" xlink:href="#m0405ed42d3" y="255.420538"/>
      </g>
     </g>
     <g id="text_14">
      <!-- 0.08 -->
      <defs>
       <path d="M 27.203125 35.765625 
C 33.5 38.96875 39.90625 43.796875 39.90625 51.53125 
C 39.90625 60.6875 31.09375 66 23 66 
C 13.90625 66 5.90625 59.375 5.90625 50.234375 
C 5.90625 47.71875 6.5 43.390625 10.40625 39.578125 
C 11.40625 38.578125 15.59375 35.5625 18.296875 33.65625 
C 13.796875 31.34375 3.296875 25.8125 3.296875 14.765625 
C 3.296875 4.40625 13.09375 -2 22.796875 -2 
C 33.5 -2 42.5 5.71875 42.5 15.96875 
C 42.5 25.109375 36.40625 29.328125 32.40625 32.046875 
z
M 14.09375 44.609375 
C 13.296875 45.109375 9.296875 48.21875 9.296875 52.9375 
C 9.296875 59.078125 15.59375 63.6875 22.796875 63.6875 
C 30.703125 63.6875 36.5 58.0625 36.5 51.53125 
C 36.5 42.1875 26.09375 36.859375 25.59375 36.859375 
C 25.5 36.859375 25.40625 36.859375 24.59375 37.46875 
z
M 32.5 24 
C 34 22.90625 38.796875 19.578125 38.796875 13.453125 
C 38.796875 6.015625 31.40625 0.390625 23 0.390625 
C 13.90625 0.390625 7 6.921875 7 14.859375 
C 7 22.796875 13.09375 29.4375 20 32.546875 
z
" id="CMR17-56"/>
      </defs>
      <g transform="translate(366.214145 267.95534)scale(0.08 -0.08)">
       <use transform="scale(0.996264)" xlink:href="#CMR17-48"/>
       <use transform="translate(45.690477 0)scale(0.996264)" xlink:href="#CMR17-46"/>
       <use transform="translate(70.561536 0)scale(0.996264)" xlink:href="#CMR17-48"/>
       <use transform="translate(116.252013 0)scale(0.996264)" xlink:href="#CMR17-56"/>
      </g>
     </g>
    </g>
    <g id="xtick_8">
     <g id="line2d_67">
      <path clip-path="url(#pda826fc10d)" d="M 408.294354 255.420538 
L 408.294354 2.834646 
" style="fill:none;stroke:#000000;stroke-linecap:square;stroke-opacity:0.1;stroke-width:0.5;"/>
     </g>
     <g id="line2d_68">
      <g>
       <use style="fill-opacity:0.1;stroke:#000000;stroke-opacity:0.1;stroke-width:0.5;" x="408.294354" xlink:href="#m0405ed42d3" y="255.420538"/>
      </g>
     </g>
     <g id="text_15">
      <!-- 0.15 -->
      <g transform="translate(400.766918 267.95534)scale(0.08 -0.08)">
       <use transform="scale(0.996264)" xlink:href="#CMR17-48"/>
       <use transform="translate(45.690477 0)scale(0.996264)" xlink:href="#CMR17-46"/>
       <use transform="translate(70.561536 0)scale(0.996264)" xlink:href="#CMR17-49"/>
       <use transform="translate(116.252013 0)scale(0.996264)" xlink:href="#CMR17-53"/>
      </g>
     </g>
    </g>
    <g id="text_16">
     <!-- $|\psi|^2$ -->
     <defs>
      <path d="M 15.90625 71.390625 
C 15.90625 73.1875 15.90625 75 13.90625 75 
C 11.90625 75 11.90625 73.1875 11.90625 71.390625 
L 11.90625 -21.40625 
C 11.90625 -23.203125 11.90625 -25 13.90625 -25 
C 15.90625 -25 15.90625 -23.203125 15.90625 -21.40625 
z
" id="CMSY10-106"/>
      <path d="M 47 66.59375 
C 47 66.6875 47.40625 67.984375 47.40625 68.09375 
C 47.40625 69 46.59375 69 46.296875 69 
C 45.40625 69 45.296875 68.484375 44.90625 66.984375 
L 28.40625 1.1875 
C 20.09375 2.1875 17 6.375 17 12.359375 
C 17 14.5625 17 16.859375 21.703125 29.21875 
C 23 32.8125 23.5 34.109375 23.5 35.90625 
C 23.5 40.40625 20.296875 44 15.59375 44 
C 6.40625 44 2.703125 29.53125 2.703125 28.734375 
C 2.703125 28.328125 3.09375 27.828125 3.796875 27.828125 
C 4.703125 27.828125 4.796875 28.234375 5.203125 29.625 
C 7.59375 38.296875 11.59375 41.984375 15.296875 41.984375 
C 16.203125 41.984375 17.90625 41.890625 17.90625 38.703125 
C 17.90625 38.296875 17.90625 36.109375 16.203125 31.71875 
C 10.796875 17.546875 10.796875 15.359375 10.796875 13.0625 
C 10.796875 3.484375 18.796875 -0.203125 27.796875 -0.90625 
C 27 -3.9375 26.296875 -7.0625 25.5 -10.09375 
C 23.90625 -15.953125 23.203125 -18.703125 23.203125 -19.109375 
C 23.203125 -20 24 -20 24.296875 -20 
C 24.5 -20 24.90625 -20 25.09375 -19.609375 
C 25.5 -19.203125 29.59375 -2.765625 30 -1 
C 33.703125 -1 41.59375 -1 50.59375 8.28125 
C 53.90625 11.859375 56.90625 16.453125 58.59375 20.75 
C 59.59375 23.34375 62 32.21875 62 37.3125 
C 62 43.296875 59 44 58 44 
C 55.59375 44 53.40625 41.59375 53.40625 39.59375 
C 53.40625 38.40625 54.09375 37.703125 54.5 37.3125 
C 55.40625 36.40625 58.09375 33.71875 58.09375 28.53125 
C 58.09375 24.9375 56.09375 17.546875 49.703125 10.375 
C 41.296875 1 33.59375 1 30.59375 1 
z
" id="CMMI12-32"/>
     </defs>
     <g transform="translate(372.979732 282.425628)scale(0.11 -0.11)">
      <use transform="scale(0.996264)" xlink:href="#CMSY10-106"/>
      <use transform="translate(27.674085 0)scale(0.996264)" xlink:href="#CMMI12-32"/>
      <use transform="translate(94.667564 0)scale(0.996264)" xlink:href="#CMSY10-106"/>
      <use transform="translate(122.341649 36.153639)scale(0.697382)" xlink:href="#CMR17-50"/>
     </g>
    </g>
   </g>
   <g id="matplotlib.axis_4">
    <g id="ytick_6"/>
    <g id="ytick_7"/>
    <g id="ytick_8"/>
    <g id="ytick_9"/>
    <g id="ytick_10"/>
    <g id="ytick_11"/>
    <g id="ytick_12"/>
   </g>
   <g id="line2d_69">
    <path clip-path="url(#pda826fc10d)" d="M 339.978526 255.420538 
L 342.201677 252.173005 
L 346.994203 245.317102 
L 348.207422 243.152081 
L 348.995438 241.347896 
L 349.490433 239.724129 
L 349.753202 238.100363 
L 349.774521 236.657015 
L 349.586272 235.213667 
L 349.185395 233.770319 
L 348.485265 232.146552 
L 347.537637 230.522786 
L 346.230027 228.718601 
L 344.223994 226.373161 
L 338.109343 219.517258 
L 337.063985 217.893491 
L 336.409035 216.450143 
L 336.094139 215.187214 
L 336.043779 214.104703 
L 336.216743 213.022192 
L 336.629847 211.939681 
L 337.296803 210.85717 
L 338.227798 209.774659 
L 339.429126 208.692148 
L 341.174875 207.429219 
L 343.28681 206.166289 
L 346.131649 204.722941 
L 349.840438 203.099175 
L 355.001979 201.114571 
L 362.301736 198.588712 
L 381.484423 192.093647 
L 385.954779 190.289462 
L 388.990258 188.846114 
L 391.170268 187.583184 
L 392.640467 186.500673 
L 393.561588 185.598581 
L 394.190842 184.696488 
L 394.516802 183.794396 
L 394.553524 183.072722 
L 394.388072 182.351048 
L 394.019162 181.629374 
L 393.27233 180.727281 
L 392.211624 179.825189 
L 390.535059 178.742678 
L 388.437003 177.660167 
L 385.493393 176.397237 
L 381.545017 174.95389 
L 375.887943 173.149705 
L 367.720579 170.804264 
L 349.892162 165.752546 
L 344.465642 163.948361 
L 340.817505 162.505013 
L 338.248341 161.242084 
L 336.572965 160.159573 
L 335.581177 159.257481 
L 335.067379 158.535807 
L 334.811498 157.814133 
L 334.820273 157.092459 
L 335.098578 156.370785 
L 335.64936 155.649111 
L 336.4736 154.927437 
L 337.886701 154.025344 
L 339.718912 153.123252 
L 342.454496 152.040741 
L 346.348939 150.777811 
L 351.648904 149.334463 
L 358.549016 147.710697 
L 368.032625 145.726093 
L 383.95176 142.658979 
L 401.509526 139.231028 
L 410.558558 137.246424 
L 416.933014 135.622658 
L 421.093773 134.359728 
L 424.029801 133.277217 
L 426.334958 132.194706 
L 427.747549 131.292614 
L 428.533372 130.57094 
L 429.007081 129.849266 
L 429.165354 129.127592 
L 429.076303 128.586336 
L 428.681227 127.864662 
L 427.973001 127.142988 
L 426.95659 126.421314 
L 425.263742 125.519222 
L 422.637988 124.436711 
L 419.403213 123.3542 
L 414.927668 122.091271 
L 409.005187 120.647923 
L 400.632742 118.843738 
L 387.751213 116.317879 
L 362.738957 111.446579 
L 353.847413 109.461976 
L 347.592829 107.83821 
L 343.492103 106.57528 
L 340.134736 105.312351 
L 337.886701 104.22984 
L 336.4736 103.327747 
L 335.486032 102.425655 
L 335.003539 101.703981 
L 334.792969 100.982307 
L 334.850888 100.260633 
L 335.171952 99.538959 
L 335.748965 98.817285 
L 336.816344 97.915192 
L 338.248341 97.0131 
L 340.412641 95.930589 
L 343.489095 94.667659 
L 347.622174 93.224311 
L 353.496839 91.420127 
L 363.797189 88.533431 
L 375.887943 85.105479 
L 382.069498 83.120876 
L 386.386127 81.497109 
L 389.181656 80.23418 
L 391.42744 78.97125 
L 392.885384 77.888739 
L 393.758409 76.986647 
L 394.314937 76.084554 
L 394.53119 75.362881 
L 394.544812 74.641207 
L 394.358158 73.919533 
L 393.974964 73.197859 
L 393.227422 72.295766 
L 392.19342 71.393674 
L 390.596444 70.311163 
L 388.28262 69.048233 
L 385.115538 67.604885 
L 381.003095 65.981119 
L 374.868104 63.816097 
L 351.644549 55.877683 
L 347.31089 54.073498 
L 343.955868 52.449732 
L 341.454371 51.006384 
L 339.65584 49.743454 
L 338.227798 48.480525 
L 337.296803 47.398014 
L 336.629847 46.315503 
L 336.216743 45.232992 
L 336.043779 44.150481 
L 336.094139 43.06797 
L 336.348343 41.985459 
L 336.873548 40.72253 
L 337.729423 39.279182 
L 339.096208 37.474997 
L 341.184241 35.129556 
L 345.940896 29.89742 
L 347.418203 27.912816 
L 348.485265 26.108631 
L 349.185395 24.484865 
L 349.586272 23.041517 
L 349.774521 21.598169 
L 349.753202 20.154821 
L 349.490433 18.531055 
L 348.995438 16.907288 
L 348.207422 15.103103 
L 346.994203 12.938081 
L 345.194851 10.231804 
L 339.978526 2.834646 
L 339.978526 2.834646 
" style="fill:none;stroke:#ff0000;stroke-linecap:round;"/>
   </g>
  </g>
 </g>
 <defs>
  <clipPath id="p5c8f702449">
   <rect height="252.585892" width="283.148699" x="38.437028" y="2.834646"/>
  </clipPath>
  <clipPath id="pda826fc10d">
   <rect height="252.585892" width="94.3829" x="334.782455" y="2.834646"/>
  </clipPath>
 </defs>
</svg>
