<?xml version="1.0" encoding="UTF-8" standalone="no"?>
<!-- Created with Inkscape (http://www.inkscape.org/) -->

<svg
   xmlns:dc="http://purl.org/dc/elements/1.1/"
   xmlns:cc="http://creativecommons.org/ns#"
   xmlns:rdf="http://www.w3.org/1999/02/22-rdf-syntax-ns#"
   xmlns:svg="http://www.w3.org/2000/svg"
   xmlns="http://www.w3.org/2000/svg"
   xmlns:sodipodi="http://sodipodi.sourceforge.net/DTD/sodipodi-0.dtd"
   xmlns:inkscape="http://www.inkscape.org/namespaces/inkscape"
   width="339"
   height="158.00002"
   id="svg3825"
   version="1.1"
   inkscape:version="0.48.2 r9819"
   sodipodi:docname="cmc.svg">
  <defs
     id="defs3827" />
  <sodipodi:namedview
     id="base"
     pagecolor="#ffffff"
     bordercolor="#666666"
     borderopacity="1.0"
     inkscape:pageopacity="0.0"
     inkscape:pageshadow="2"
     inkscape:zoom="1.0736842"
     inkscape:cx="453.11275"
     inkscape:cy="95.329329"
     inkscape:document-units="px"
     inkscape:current-layer="layer1"
     showgrid="true"
     showborder="false"
     inkscape:showpageshadow="false"
     inkscape:window-width="1366"
     inkscape:window-height="746"
     inkscape:window-x="-8"
     inkscape:window-y="-8"
     inkscape:window-maximized="1"
     inkscape:snap-global="false"
     fit-margin-top="0"
     fit-margin-left="0"
     fit-margin-right="0"
     fit-margin-bottom="0">
    <inkscape:grid
       type="xygrid"
       id="grid3833"
       empspacing="5"
       visible="true"
       enabled="true"
       snapvisiblegridlinesonly="true"
       spacingx="10px"
       spacingy="10px" />
  </sodipodi:namedview>
  <metadata
     id="metadata3830">
    <rdf:RDF>
      <cc:Work
         rdf:about="">
        <dc:format>image/svg+xml</dc:format>
        <dc:type
           rdf:resource="http://purl.org/dc/dcmitype/StillImage" />
        <dc:title></dc:title>
      </cc:Work>
    </rdf:RDF>
  </metadata>
  <g
     inkscape:label="Layer 1"
     inkscape:groupmode="layer"
     id="layer1"
     transform="translate(512.14308,-950.31719)">
    <g
       id="g4104"
       transform="translate(-12.446095,146.73291)" />
    <g
       id="g4167"
       transform="translate(217.48982,97.870417)">
      <g
         id="g4262"
         transform="translate(355.02014,60.769213)" />
    </g>
    <g
       id="g5131"
       transform="translate(-393.92158,15.89391)">
      <path
         style="fill:#95928f"
         d="m -96.7215,1092.4233 -21.5,0 0,-79 0,-79.00002 21.5,0 21.5,0 0,8.5 0,8.5 -9,0 -9,0 0,62.00002 0,62 9,0 9,0 0,8.5 0,8.5 -21.5,0 z m 296,0 -21.5,0 0,-8.5 0,-8.5 9,0 9,0 0,-62 0,-62.00002 -9,0 -9,0 0,-8.5 0,-8.5 21.5,0 21.5,0 0,79.00002 0,79 -21.5,0 z m -27,-50.3099 -6,0.01 2.73209,-0.4149 c 1.50265,-0.2281 4.20265,-0.2327 6,-0.01 l 3.26791,0.4047 -6,0.01 z"
         id="path5135"
         inkscape:connector-curvature="0" />
      <path
         style="fill:#285673"
         d="m 38.7785,1061.8511 -7.5,0.4415 -6.51881,-0.9047 c -3.58535,-0.4977 -9.21035,-1.7232 -12.5,-2.7235 l -5.98119,-1.8187 -0.28768,-9.8327 -0.28767,-9.8326 1.78767,0.7748 c 0.98323,0.4262 4.17697,1.6202 7.09722,2.6535 l 5.30955,1.8788 7.20536,0.9135 7.20536,0.9136 5.67037,-0.7695 5.67037,-0.7695 1.56473,-1.2986 1.56472,-1.2986 0,-2.7551 0,-2.7551 -1.39029,-1.1539 c -0.76467,-0.6346 -6.50217,-2.8721 -12.75,-4.9722 -6.24784,-2.1002 -13.15971,-4.7398 -15.35971,-5.8658 -2.2,-1.126 -5.26032,-3.2183 -6.80071,-4.6494 l -2.80072,-2.6021 -1.60477,-3.7508 -1.60477,-3.7507 -0.0177,-6 -0.0177,-6.00002 1.60841,-3.07515 1.60841,-3.07515 3.92862,-3.54927 3.92862,-3.54927 5.38612,-1.85647 5.38612,-1.85647 10,0.003 10,0.003 5.5,1.36266 c 3.025,0.74945 7.1875,2.0257 9.25,2.83611 l 3.75,1.47347 0,8.50805 0,8.50801 -1.75,-0.5614 c -0.9625,-0.3088 -5.09457,-1.4863 -9.18237,-2.61665 l -7.4323,-2.05527 -8.76187,0 -8.76186,0 -2.70719,2.32862 -2.70718,2.3286 0.62992,2.5098 0.62992,2.5098 3.7715,1.6329 c 2.07433,0.8981 8.0465,2.8284 13.2715,4.2894 l 9.5,2.6566 4.68799,2.3576 4.68799,2.3575 2.46983,3.2646 2.46983,3.2646 1.1831,4.4445 1.1831,4.4445 -0.65007,5.203 -0.65007,5.2029 -2.86325,4.5149 -2.86326,4.5149 -4.32759,2.5003 c -2.38018,1.3752 -6.1276,2.9865 -8.3276,3.5807 -2.2,0.5943 -7.375,1.2792 -11.5,1.5221 z m 77.61525,-0.055 c -5.01339,0.2604 -10.24025,0.2585 -11.61525,0 -1.375,-0.2628 -4.5546,-1.1369 -7.06578,-1.9424 l -4.56578,-1.4645 -3.63539,-3.7308 -3.6354,-3.7308 -1.79882,-4 -1.79883,-4.0002 -0.30023,-42.25 -0.30023,-42.25002 10.05023,0 10.05023,0 0,11.5 0,11.5 13,0 13,0 0,8.5 0,8.5 -13,0 -13,0 0,19.94422 0,19.9443 2.41191,2.8057 2.41192,2.8058 8.33808,0 c 4.58595,0 10.26823,-0.3457 12.62729,-0.7681 l 4.28919,-0.7681 -0.28919,8.6987 -0.2892,8.6987 -2.88475,0.7689 c -1.58662,0.423 -6.98662,0.9821 -12,1.2426 z M -42.7215,1061.343 c -0.55,-0.043 -3.889565,-0.7053 -7.421257,-1.4712 l -6.421256,-1.3927 -5.324298,-3.5351 -5.324298,-3.5351 -3.42644,-4.7216 -3.42644,-4.7216 -1.711349,-5.0211 -1.711348,-5.0212 -0.487905,-9.295 -0.487906,-9.2951 1.204153,-6.2049 c 0.662284,-3.4128 2.016143,-8.0601 3.008577,-10.32742 l 1.804423,-4.12241 3.794459,-4.20001 3.794458,-4.20001 3.731845,-1.90385 3.731845,-1.90384 6.98905,-1.15422 6.989051,-1.15422 6.847318,1.5557 c 3.766025,0.85563 7.634818,1.86249 8.597318,2.23747 l 1.75,0.68177 0,-15.60699 0,-15.60699 9.5,0 9.5,0 0,51.95982 0,51.9598 -6.55738,2.0254 -6.557386,2.0254 -10.692617,1.0139 c -5.880939,0.5577 -11.142617,0.9786 -11.692617,0.9353 z m 4.600777,-17.9588 5.600776,0.039 3.169595,-1.1049 3.169595,-1.1049 -0.270372,-20.0382 -0.270371,-20.0381 -2.781967,-2.07604 -2.781966,-2.07601 -7.160554,-0.40461 -7.160553,-0.40461 -3.289928,1.77174 -3.289928,1.77175 -2.177058,4.49718 -2.177058,4.4972 -0.465297,7.2503 -0.465296,7.2503 1.250554,5.2129 1.250555,5.2129 3.105655,3.5372 3.105656,3.5371 3.018592,1.3153 3.018593,1.3153 5.600777,0.039 z m 200.899223,16.0392 -15,0 0,-45 0,-45.00002 -5.5,0 -5.5,0 0,-9 0,-9 15,0 15,0 0,45.5 0,45.50002 5.5,0 5.5,0 0,8.5 0,8.5 -15,0 z"
         id="path5133"
         inkscape:connector-curvature="0" />
    </g>
  </g>
</svg>
